# xmcd
#
# Track frame offsets:
#	150
#	33797
#	65300
#	93670
#	142060
#	167667
#	187752
#	206657
#	226075
#
# Disc length: 3522 seconds
#
# Revision: 0
# Processed by: cddbd v1.4PL0 Copyright (c) Steve Scherf et al.
# Submitted via: audiograbber 1.80
#
DISCID=700dc009
DTITLE=Funkadelic - One Nation Under A Groove
DYEAR=1900
DGENRE=
TTITLE0=One Nation Under A Groove
TTITLE1=Groovallegiance
TTITLE2=Who Says A Funk Band Can't Play Rock-!
TTITLE3=Promentalshitbackwashpsychosis Enema Squad (The DooDoo Chasers)
TTITLE4=Into You
TTITLE5=Cholly (Funk Get Ready To Roll!)
TTITLE6=Lunchmeataphobia (Think, It Ain't Illegal Yet!)
TTITLE7=P.E.Squad-Doo Doo Chasers (-Going All-The-Way Off- Instrumental Version
TTITLE7=)
TTITLE8=Maggot Brain
EXTD=
EXTT0=
EXTT1=
EXTT2=
EXTT3=
EXTT4=
EXTT5=
EXTT6=
EXTT7=
EXTT8=
PLAYORDER=
